<svg xmlns="http://www.w3.org/2000/svg" width="250" height="250" viewBox="0 0 250 250"><style>@keyframes bookPulse{0%,100%{transform:scale(1)}50%{transform:scale(1.06)}}.book{animation:bookPulse 1.5s ease-in-out infinite;transform-origin:125px 125px}</style><g class="book" transform="translate(25,20)"><line x1="100" y1="8" x2="100" y2="200" stroke="#1a8c7e" stroke-width="4" stroke-linecap="round"/><path d="M100,8 C80,13 40,18 8,28 L8,200 C40,190 80,185 100,190 Z" fill="#e0f7f5" stroke="#1a8c7e" stroke-width="3"/><path d="M100,8 C120,13 160,18 192,28 L192,200 C160,190 120,185 100,190 Z" fill="#e0f7f5" stroke="#1a8c7e" stroke-width="3"/><path d="M100,13 C85,18 55,23 24,33 L24,195 C55,185 85,180 100,185 Z" fill="white" stroke="#1a8c7e" stroke-width="2"/><path d="M100,13 C90,18 65,23 39,30 L39,192 C65,184 90,179 100,182 Z" fill="white" stroke="#1a8c7e" stroke-width="1.5"/><path d="M100,13 C115,18 145,23 176,33 L176,195 C145,185 115,180 100,185 Z" fill="white" stroke="#1a8c7e" stroke-width="2"/><path d="M100,13 C110,18 135,23 161,30 L161,192 C135,184 110,179 100,182 Z" fill="white" stroke="#1a8c7e" stroke-width="1.5"/><path d="M78,8 L100,28 L122,8" fill="none" stroke="#1a8c7e" stroke-width="3" stroke-linejoin="round"/><path d="M62,11 L100,34 L138,11" fill="none" stroke="#1a8c7e" stroke-width="2.5" stroke-linejoin="round"/><path d="M47,15 L100,40 L153,15" fill="none" stroke="#1a8c7e" stroke-width="2" stroke-linejoin="round"/><path d="M8,200 Q100,215 192,200" fill="none" stroke="#1a8c7e" stroke-width="4" stroke-linecap="round"/></g></svg>